<?xml version="1.0" encoding="UTF-8" standalone="no"?>
<!-- Created with Inkscape (http://www.inkscape.org/) -->

<svg
   xmlns:dc="http://purl.org/dc/elements/1.1/"
   xmlns:cc="http://creativecommons.org/ns#"
   xmlns:rdf="http://www.w3.org/1999/02/22-rdf-syntax-ns#"
   xmlns:svg="http://www.w3.org/2000/svg"
   xmlns="http://www.w3.org/2000/svg"
   xmlns:sodipodi="http://sodipodi.sourceforge.net/DTD/sodipodi-0.dtd"
   xmlns:inkscape="http://www.inkscape.org/namespaces/inkscape"
   width="6.3499999mm"
   height="11.150301mm"
   viewBox="0 0 6.3499999 11.150301"
   version="1.1"
   id="svg836"
   inkscape:version="0.92.3 (unknown)"
   sodipodi:docname="applications.svg">
  <defs
     id="defs830" />
  <sodipodi:namedview
     id="base"
     pagecolor="#ffffff"
     bordercolor="#666666"
     borderopacity="1.0"
     inkscape:pageopacity="0.0"
     inkscape:pageshadow="2"
     inkscape:zoom="33.543379"
     inkscape:cx="11.208379"
     inkscape:cy="12.001467"
     inkscape:document-units="mm"
     inkscape:current-layer="layer1"
     showgrid="false"
     inkscape:window-width="1280"
     inkscape:window-height="976"
     inkscape:window-x="0"
     inkscape:window-y="0"
     inkscape:window-maximized="1" />
  <metadata
     id="metadata833">
    <rdf:RDF>
      <cc:Work
         rdf:about="">
        <dc:format>image/svg+xml</dc:format>
        <dc:type
           rdf:resource="http://purl.org/dc/dcmitype/StillImage" />
        <dc:title />
      </cc:Work>
    </rdf:RDF>
  </metadata>
  <g
     inkscape:label="Layer 1"
     inkscape:groupmode="layer"
     id="layer1"
     transform="translate(-113.61964,-168.20461)">
    <path
       inkscape:connector-curvature="0"
       style="color:#31363b;fill:#2ba7e7;fill-opacity:1;stroke:none;stroke-width:0.26458332"
       d="m 115.16935,168.20461 h 1.13392 v 1.13393 h -1.13392 z"
       id="path4221" />
    <g
       transform="matrix(0.26458333,0,0,0.26458333,113.61964,173.00491)"
       id="applications-other">
      <rect
         style="opacity:0.01000001;fill:#000000;fill-opacity:0.00392157;stroke:none"
         id="rect3028"
         width="24"
         height="24"
         x="1.8530274e-07"
         y="3.8146973e-06" />
      <path
         d="m 13,14 v 6 h 6.000004 v -6 z m -8,0 v 6 h 6.000004 v -6 z m 8,-8 v 6 h 6.000004 V 6 Z M 5,4 h 14 c 1.108002,0 2,0.892 2,2 v 14 c 0,1.108 -0.891998,2 -2,2 H 5 C 3.8919979,22 3,21.108 3,20 V 6 C 3,4.892 3.8919979,4 5,4 Z m 0,2 v 6 h 6.000004 V 6 Z"
         style="color:#31363b;opacity:0;fill:#000000;fill-opacity:0;stroke:none"
         id="path4194-4-7-2"
         inkscape:connector-curvature="0"
         sodipodi:nodetypes="cccccccccccccccsssssssssccccc" />
      <path
         d="m 13,13 v 6 h 6.000004 v -6 z m -8,0 v 6 h 6.000004 v -6 z m 8,-8 v 6 h 6.000004 V 5 Z M 5,3 h 14 c 1.108002,0 2,0.892 2,2 v 14 c 0,1.108 -0.891998,2 -2,2 H 5 C 3.8919979,21 3,20.108 3,19 V 5 C 3,3.892 3.8919979,3 5,3 Z m 0,2 v 6 h 6.000004 V 5 Z"
         style="color:#31363b;fill:#1a1a1a;fill-opacity:1;stroke:none;opacity:1"
         id="path4194-4-7"
         inkscape:connector-curvature="0"
         sodipodi:nodetypes="cccccccccccccccsssssssssccccc" />
    </g>
  </g>
</svg>
